# xmcd CD database file
#
# Track frame offsets:
#	150
#	4587
#	12078
#	27402
#	28975
#	96133
#	97446
#	109164
#	110864
#	127689
#	129067
#	183102
#	271267
#	286970
#	288086
#	297052
#	297359
#	301111
#	304674
#	307636
#	312743
#	315752
#
# Disc length: 4262 seconds
#
# Revision: 0
# Processed by: cddbd v1.5.2PL0 Copyright (c) Steve Scherf et al.
# Submitted via: CDex 1.70beta2
#
DISCID=2510a416
DTITLE=Fachgruppe Hilfsmittel des ÖBSV - Information Motivation 05_2009
DYEAR=2009
DGENRE=Information
TTITLE0=00_59 Ernest Tschutschek, Walter Lindner - Intro
TTITLE1=01_39 Ernest Tschutschek, Walter Lindner - Inhalt
TTITLE2=03_24 Wolfgang Kremser - Donaukurier und OHP uebersiedeln
TTITLE3=00_20 Walter Lindner - Anmoderation Beitrag 2
TTITLE4=14_55 Wolfgang Kremser - Mobil
TTITLE5=00_17 Ernest Tschutschek - Anmoderation Beitrag 3
TTITLE6=02_36 Gertrude Schaller - Evolutionsfuehrung
TTITLE7=00_22 Walter Lindner - Anmoderation Beitrag 4
TTITLE8=03_44 Christian Zehetgruber - Vorlesesystem Vokatex
TTITLE9=00_18 Ernest Tschutschek - Anmoderation Beitrag 5
TTITLE10=12_00 Mag. Beate Hattinger - Veranstaltung Sicher unterwegs
TTITLE11=19_35 Ernest Tschutschek - Ausstellungsrundgang
TTITLE12=03_29 Mag. Beate Hattinger - 15. ordentliche Generalversammlung der Fachgruppe Hilfsmittel
TTITLE13=00_14 Walter Lindner - Anmoderation Beitrag 6
TTITLE14=01_59 Ernest Tschutschek - Hilfsmittelboerse
TTITLE15=00_04 Ernest Tschutschek - Anmoderation Kontakte
TTITLE16=00_50 Ernest Tschutschek - Kontakt Mag. Beate Hattinger
TTITLE17=00_47 Walter Lindner - Kontakt Eva Papst
TTITLE18=00_39 Ernest Tschutschek - Kontakt Franz Kirnbauer
TTITLE19=01_08 Walter Lindner - Kontakt Regina Hettegger
TTITLE20=00_40 Ernest Tschutschek - Kontakt Stefanie Lindner
TTITLE21=00_52 Ernest Schutschek, Walter Lindner - Schluss
EXTD=YEAR: 2009
EXTT0=
EXTT1=
EXTT2=
EXTT3=
EXTT4=
EXTT5=
EXTT6=
EXTT7=
EXTT8=
EXTT9=
EXTT10=
EXTT11=
EXTT12=
EXTT13=
EXTT14=
EXTT15=
EXTT16=
EXTT17=
EXTT18=
EXTT19=
EXTT20=
EXTT21=
PLAYORDER=
